<svg width="16" height="16" viewBox="0 0 16 16" fill="none" xmlns="http://www.w3.org/2000/svg">
<path fill-rule="evenodd" clip-rule="evenodd" d="M8 15C9.85652 15 11.637 14.2625 12.9497 12.9497C14.2625 11.637 15 9.85652 15 8C15 6.14348 14.2625 4.36301 12.9497 3.05025C11.637 1.7375 9.85652 1 8 1C6.14348 1 4.36301 1.7375 3.05025 3.05025C1.7375 4.36301 1 6.14348 1 8C1 9.85652 1.7375 11.637 3.05025 12.9497C4.36301 14.2625 6.14348 15 8 15V15ZM8 16C10.1217 16 12.1566 15.1571 13.6569 13.6569C15.1571 12.1566 16 10.1217 16 8C16 5.87827 15.1571 3.84344 13.6569 2.34315C12.1566 0.842855 10.1217 0 8 0C5.87827 0 3.84344 0.842855 2.34315 2.34315C0.842855 3.84344 0 5.87827 0 8C0 10.1217 0.842855 12.1566 2.34315 13.6569C3.84344 15.1571 5.87827 16 8 16V16Z" fill="black"/>
<path fill-rule="evenodd" clip-rule="evenodd" d="M4.28514 9.56694C4.39998 9.50064 4.53646 9.48267 4.66454 9.51699C4.79263 9.55131 4.90184 9.63511 4.96814 9.74994C5.27525 10.2823 5.71719 10.7243 6.24947 11.0315C6.78175 11.3387 7.38557 11.5003 8.00014 11.4999C8.61472 11.5003 9.21854 11.3387 9.75081 11.0315C10.2831 10.7243 10.725 10.2823 11.0321 9.74994C11.0647 9.69262 11.1083 9.64231 11.1605 9.60191C11.2126 9.56151 11.2722 9.53181 11.3358 9.51454C11.3994 9.49726 11.4659 9.49274 11.5312 9.50124C11.5966 9.50974 11.6597 9.53109 11.7168 9.56406C11.7739 9.59703 11.8239 9.64097 11.864 9.69335C11.904 9.74573 11.9333 9.80552 11.9502 9.86927C11.967 9.93302 11.9711 9.99947 11.9622 10.0648C11.9533 10.1301 11.9315 10.1931 11.8981 10.2499C11.5033 10.9343 10.9351 11.5026 10.2508 11.8975C9.56651 12.2925 8.79025 12.5003 8.00014 12.4999C7.21004 12.5003 6.43378 12.2925 5.74949 11.8975C5.06519 11.5026 4.49702 10.9343 4.10214 10.2499C4.03584 10.1351 4.01787 9.99863 4.05219 9.87054C4.08651 9.74246 4.17031 9.63325 4.28514 9.56694Z" fill="black"/>
<path d="M7 6.5C7 7.328 6.552 8 6 8C5.448 8 5 7.328 5 6.5C5 5.672 5.448 5 6 5C6.552 5 7 5.672 7 6.5ZM11 6.5C11 7.328 10.552 8 10 8C9.448 8 9 7.328 9 6.5C9 5.672 9.448 5 10 5C10.552 5 11 5.672 11 6.5Z" fill="black"/>
</svg>
