<svg width="293" height="48" viewBox="0 0 293 48" fill="none" xmlns="http://www.w3.org/2000/svg">
<rect x="46.5" y="0.5" width="200" height="39" rx="15.5" fill="#F0F2F5" stroke="black"/>
<path d="M98.5391 22.5859C98.4453 24.4141 97.9297 25.8125 96.9922 26.7812C96.0625 27.75 94.7461 28.2344 93.043 28.2344C91.332 28.2344 89.9727 27.5859 88.9648 26.2891C87.957 24.9844 87.4531 23.2188 87.4531 20.9922V17.8984C87.4531 15.6797 87.9688 13.9258 89 12.6367C90.0391 11.3477 91.4531 10.7031 93.2422 10.7031C94.8906 10.7031 96.1641 11.1992 97.0625 12.1914C97.9688 13.1758 98.4609 14.5859 98.5391 16.4219H96.3711C96.2773 15.0312 95.9844 14.0391 95.4922 13.4453C95 12.8516 94.25 12.5547 93.2422 12.5547C92.0781 12.5547 91.1836 13.0117 90.5586 13.9258C89.9336 14.832 89.6211 16.1641 89.6211 17.9219V21.0508C89.6211 22.7773 89.9102 24.1016 90.4883 25.0234C91.0742 25.9453 91.9258 26.4062 93.043 26.4062C94.1602 26.4062 94.9648 26.1289 95.457 25.5742C95.9492 25.0195 96.2539 24.0234 96.3711 22.5859H98.5391ZM100.73 21.0742C100.73 19.2305 101.176 17.7734 102.066 16.7031C102.965 15.625 104.148 15.0859 105.617 15.0859C107.086 15.0859 108.266 15.6094 109.156 16.6562C110.055 17.7031 110.516 19.1289 110.539 20.9336V22.2695C110.539 24.1055 110.094 25.5586 109.203 26.6289C108.312 27.6992 107.125 28.2344 105.641 28.2344C104.172 28.2344 102.992 27.7148 102.102 26.6758C101.219 25.6367 100.762 24.2305 100.73 22.457V21.0742ZM102.805 22.2695C102.805 23.5742 103.059 24.6016 103.566 25.3516C104.082 26.0938 104.773 26.4648 105.641 26.4648C107.469 26.4648 108.41 25.1445 108.465 22.5039V21.0742C108.465 19.7773 108.207 18.7539 107.691 18.0039C107.176 17.2461 106.484 16.8672 105.617 16.8672C104.766 16.8672 104.082 17.2461 103.566 18.0039C103.059 18.7539 102.805 19.7734 102.805 21.0625V22.2695ZM115.168 15.3203L115.227 16.6914C116.031 15.6211 117.059 15.0859 118.309 15.0859C120.551 15.0859 121.688 16.582 121.719 19.5742V28H119.656V19.668C119.656 18.6758 119.488 17.9727 119.152 17.5586C118.824 17.1367 118.328 16.9258 117.664 16.9258C117.148 16.9258 116.684 17.0977 116.27 17.4414C115.863 17.7852 115.535 18.2344 115.285 18.7891V28H113.211V15.3203H115.168ZM125.75 28V16.9961H124.098V15.3203H125.75V13.8555C125.773 12.5664 126.098 11.5625 126.723 10.8438C127.355 10.1172 128.246 9.75391 129.395 9.75391C129.809 9.75391 130.227 9.82031 130.648 9.95312L130.543 11.7109C130.246 11.6406 129.93 11.6055 129.594 11.6055C128.414 11.6055 127.824 12.4453 127.824 14.125V15.3203H129.992V16.9961H127.824V28H125.75ZM136.684 28.2344C135.105 28.2344 133.895 27.7656 133.051 26.8281C132.207 25.8828 131.777 24.5 131.762 22.6797V21.1445C131.762 19.2539 132.172 17.7734 132.992 16.7031C133.82 15.625 134.973 15.0859 136.449 15.0859C137.934 15.0859 139.043 15.5586 139.777 16.5039C140.512 17.4492 140.887 18.9219 140.902 20.9219V22.2812H133.824V22.5742C133.824 23.9336 134.078 24.9219 134.586 25.5391C135.102 26.1562 135.84 26.4648 136.801 26.4648C137.41 26.4648 137.945 26.3516 138.406 26.125C138.875 25.8906 139.312 25.5234 139.719 25.0234L140.797 26.3359C139.898 27.6016 138.527 28.2344 136.684 28.2344ZM136.449 16.8672C135.59 16.8672 134.953 17.1641 134.539 17.7578C134.125 18.3438 133.891 19.2578 133.836 20.5H138.828V20.2188C138.773 19.0156 138.555 18.1562 138.172 17.6406C137.797 17.125 137.223 16.8672 136.449 16.8672ZM149.562 24.7539C149.562 24.3086 149.395 23.9258 149.059 23.6055C148.723 23.2852 148.074 22.9102 147.113 22.4805C145.996 22.0195 145.207 21.625 144.746 21.2969C144.293 20.9688 143.953 20.5977 143.727 20.1836C143.5 19.7617 143.387 19.2617 143.387 18.6836C143.387 17.6523 143.762 16.7969 144.512 16.1172C145.27 15.4297 146.234 15.0859 147.406 15.0859C148.641 15.0859 149.633 15.4453 150.383 16.1641C151.133 16.8828 151.508 17.8047 151.508 18.9297H149.445C149.445 18.3594 149.254 17.875 148.871 17.4766C148.488 17.0703 148 16.8672 147.406 16.8672C146.797 16.8672 146.316 17.0273 145.965 17.3477C145.621 17.6602 145.449 18.082 145.449 18.6133C145.449 19.0352 145.574 19.375 145.824 19.6328C146.082 19.8906 146.695 20.2305 147.664 20.6523C149.203 21.2539 150.25 21.8438 150.805 22.4219C151.359 22.9922 151.637 23.7188 151.637 24.6016C151.637 25.7031 151.258 26.5859 150.5 27.25C149.742 27.9062 148.727 28.2344 147.453 28.2344C146.133 28.2344 145.062 27.8555 144.242 27.0977C143.422 26.3398 143.012 25.3789 143.012 24.2148H145.098C145.121 24.918 145.336 25.4688 145.742 25.8672C146.148 26.2656 146.719 26.4648 147.453 26.4648C148.141 26.4648 148.664 26.3125 149.023 26.0078C149.383 25.6953 149.562 25.2773 149.562 24.7539ZM160.508 24.7539C160.508 24.3086 160.34 23.9258 160.004 23.6055C159.668 23.2852 159.02 22.9102 158.059 22.4805C156.941 22.0195 156.152 21.625 155.691 21.2969C155.238 20.9688 154.898 20.5977 154.672 20.1836C154.445 19.7617 154.332 19.2617 154.332 18.6836C154.332 17.6523 154.707 16.7969 155.457 16.1172C156.215 15.4297 157.18 15.0859 158.352 15.0859C159.586 15.0859 160.578 15.4453 161.328 16.1641C162.078 16.8828 162.453 17.8047 162.453 18.9297H160.391C160.391 18.3594 160.199 17.875 159.816 17.4766C159.434 17.0703 158.945 16.8672 158.352 16.8672C157.742 16.8672 157.262 17.0273 156.91 17.3477C156.566 17.6602 156.395 18.082 156.395 18.6133C156.395 19.0352 156.52 19.375 156.77 19.6328C157.027 19.8906 157.641 20.2305 158.609 20.6523C160.148 21.2539 161.195 21.8438 161.75 22.4219C162.305 22.9922 162.582 23.7188 162.582 24.6016C162.582 25.7031 162.203 26.5859 161.445 27.25C160.688 27.9062 159.672 28.2344 158.398 28.2344C157.078 28.2344 156.008 27.8555 155.188 27.0977C154.367 26.3398 153.957 25.3789 153.957 24.2148H156.043C156.066 24.918 156.281 25.4688 156.688 25.8672C157.094 26.2656 157.664 26.4648 158.398 26.4648C159.086 26.4648 159.609 26.3125 159.969 26.0078C160.328 25.6953 160.508 25.2773 160.508 24.7539ZM167.527 28H165.453V15.3203H167.527V28ZM167.691 11.957C167.691 12.3086 167.594 12.6016 167.398 12.8359C167.203 13.0703 166.906 13.1875 166.508 13.1875C166.117 13.1875 165.824 13.0703 165.629 12.8359C165.434 12.6016 165.336 12.3086 165.336 11.957C165.336 11.6055 165.434 11.3086 165.629 11.0664C165.824 10.8242 166.117 10.7031 166.508 10.7031C166.898 10.7031 167.191 10.8281 167.387 11.0781C167.59 11.3203 167.691 11.6133 167.691 11.957ZM170.363 21.0742C170.363 19.2305 170.809 17.7734 171.699 16.7031C172.598 15.625 173.781 15.0859 175.25 15.0859C176.719 15.0859 177.898 15.6094 178.789 16.6562C179.688 17.7031 180.148 19.1289 180.172 20.9336V22.2695C180.172 24.1055 179.727 25.5586 178.836 26.6289C177.945 27.6992 176.758 28.2344 175.273 28.2344C173.805 28.2344 172.625 27.7148 171.734 26.6758C170.852 25.6367 170.395 24.2305 170.363 22.457V21.0742ZM172.438 22.2695C172.438 23.5742 172.691 24.6016 173.199 25.3516C173.715 26.0938 174.406 26.4648 175.273 26.4648C177.102 26.4648 178.043 25.1445 178.098 22.5039V21.0742C178.098 19.7773 177.84 18.7539 177.324 18.0039C176.809 17.2461 176.117 16.8672 175.25 16.8672C174.398 16.8672 173.715 17.2461 173.199 18.0039C172.691 18.7539 172.438 19.7734 172.438 21.0625V22.2695ZM184.801 15.3203L184.859 16.6914C185.664 15.6211 186.691 15.0859 187.941 15.0859C190.184 15.0859 191.32 16.582 191.352 19.5742V28H189.289V19.668C189.289 18.6758 189.121 17.9727 188.785 17.5586C188.457 17.1367 187.961 16.9258 187.297 16.9258C186.781 16.9258 186.316 17.0977 185.902 17.4414C185.496 17.7852 185.168 18.2344 184.918 18.7891V28H182.844V15.3203H184.801ZM202.426 26.1602H209.117V28H200.27V10.9375H202.426V26.1602ZM213.629 28H211.555V15.3203H213.629V28ZM213.793 11.957C213.793 12.3086 213.695 12.6016 213.5 12.8359C213.305 13.0703 213.008 13.1875 212.609 13.1875C212.219 13.1875 211.926 13.0703 211.73 12.8359C211.535 12.6016 211.438 12.3086 211.438 11.957C211.438 11.6055 211.535 11.3086 211.73 11.0664C211.926 10.8242 212.219 10.7031 212.609 10.7031C213 10.7031 213.293 10.8281 213.488 11.0781C213.691 11.3203 213.793 11.6133 213.793 11.957ZM218.855 15.3203L218.914 16.6914C219.719 15.6211 220.746 15.0859 221.996 15.0859C224.238 15.0859 225.375 16.582 225.406 19.5742V28H223.344V19.668C223.344 18.6758 223.176 17.9727 222.84 17.5586C222.512 17.1367 222.016 16.9258 221.352 16.9258C220.836 16.9258 220.371 17.0977 219.957 17.4414C219.551 17.7852 219.223 18.2344 218.973 18.7891V28H216.898V15.3203H218.855ZM231.711 22.1992L230.609 23.4648V28H228.535V10H230.609V20.7695L234.559 15.3203H237.043L233.012 20.6172L237.57 28H235.156L231.711 22.1992Z" fill="black"/>
<path d="M56.5499 21C56.5499 18.8625 58.1716 17.125 60.1666 17.125H64.8333V14.75H60.1666C56.9466 14.75 54.3333 17.55 54.3333 21C54.3333 24.45 56.9466 27.25 60.1666 27.25H64.8333V24.875H60.1666C58.1716 24.875 56.5499 23.1375 56.5499 21ZM61.3333 22.25H70.6666V19.75H61.3333V22.25ZM71.8333 14.75H67.1666V17.125H71.8333C73.8283 17.125 75.4499 18.8625 75.4499 21C75.4499 23.1375 73.8283 24.875 71.8333 24.875H67.1666V27.25H71.8333C75.0533 27.25 77.6666 24.45 77.6666 21C77.6666 17.55 75.0533 14.75 71.8333 14.75Z" fill="black"/>
<path d="M275.98 13.875L281.761 19.8125V21.475L275.98 27.4125L274.338 25.75L278.131 21.8313H265.25V19.4563H278.131L274.315 15.5375L275.98 13.875Z" fill="black"/>
<path d="M19.98 13.875L25.7613 19.8125V21.475L19.98 27.4125L18.3381 25.75L22.1306 21.8313H9.25V19.4563H22.1306L18.315 15.5375L19.98 13.875Z" fill="black"/>
</svg>
