<svg width="27" height="31" viewBox="0 0 27 31" fill="none" xmlns="http://www.w3.org/2000/svg">
<path d="M27 29.5909L27 5.98864C27 5.79489 26.8915 5.63636 26.7589 5.63636H25.0714C24.9388 5.63636 24.8304 5.79489 24.8304 5.98864L24.8304 27.8295L4.09821 27.8295C3.96562 27.8295 3.85714 27.9881 3.85714 28.1818V30.6477C3.85714 30.8415 3.96562 31 4.09821 31L26.0357 31C26.5691 31 27 30.3703 27 29.5909ZM23.1429 23.9545L23.1429 1.40909C23.1429 0.629687 22.7119 0 22.1786 0L6.18649 0C5.93036 0 5.68627 0.149716 5.50547 0.41392L0.283258 8.04503C0.216965 8.1419 0.162724 8.25199 0.117523 8.37088H0.0602665V8.55582C0.0210934 8.70994 0 8.87287 0 9.0402L0 23.9545C0 24.7339 0.430914 25.3636 0.964285 25.3636L22.1786 25.3636C22.7119 25.3636 23.1429 24.7339 23.1429 23.9545ZM1.92857 9.77557V9.76676L6.44263 3.17045H6.44866V9.77557H1.92857Z" fill="white"/>
</svg>
