<svg width="31" height="31" viewBox="0 0 31 31" fill="none" xmlns="http://www.w3.org/2000/svg">
<path d="M15.5 0C11.3891 0 7.44666 1.63303 4.53984 4.53984C1.63303 7.44666 0 11.3891 0 15.5C0 19.6109 1.63303 23.5533 4.53984 26.4602C7.44666 29.367 11.3891 31 15.5 31C19.6109 31 23.5533 29.367 26.4602 26.4602C29.367 23.5533 31 19.6109 31 15.5C31 11.3891 29.367 7.44666 26.4602 4.53984C23.5533 1.63303 19.6109 0 15.5 0V0ZM15.5 29.0625C13.655 29.0653 11.829 28.6894 10.1351 27.9581L17.1934 20.0182C17.3502 19.8406 17.437 19.612 17.4375 19.375V16.4688C17.4375 16.2118 17.3354 15.9654 17.1538 15.7837C16.9721 15.6021 16.7257 15.5 16.4688 15.5C13.0491 15.5 9.4395 11.9447 9.40462 11.9079C9.31449 11.818 9.20753 11.7467 9.08984 11.6982C8.97215 11.6496 8.84605 11.6248 8.71875 11.625H4.84375C4.58682 11.625 4.34042 11.7271 4.15874 11.9087C3.97706 12.0904 3.875 12.3368 3.875 12.5938V18.4062C3.87501 18.586 3.92503 18.7622 4.01947 18.9152C4.11391 19.0681 4.24904 19.1918 4.40975 19.2723L7.75 20.9424V26.6309C5.95473 25.3825 4.48836 23.718 3.47617 21.7796C2.46398 19.8413 1.93606 17.6867 1.9375 15.5C1.93468 13.4894 2.38082 11.5036 3.24338 9.6875H6.78125C7.03894 9.6875 7.285 9.58481 7.46712 9.40462L11.3421 5.52962C11.432 5.43949 11.5033 5.33253 11.5518 5.21484C11.6004 5.09715 11.6252 4.97105 11.625 4.84375V2.49937C12.8826 2.12534 14.1879 1.93607 15.5 1.9375C17.6313 1.9375 19.6482 2.42963 21.4423 3.30537C20.793 3.84898 20.2712 4.52876 19.914 5.29653C19.5567 6.06429 19.3727 6.90125 19.375 7.74806C19.375 9.3 19.9795 10.7609 21.0781 11.8575C21.6512 12.4317 22.3385 12.8792 23.0954 13.1712C23.8523 13.4632 24.662 13.5932 25.4723 13.5528C25.8908 15.1202 26.6445 19.2045 25.2185 24.8252C25.2054 24.8773 25.197 24.9305 25.1933 24.9841C23.932 26.2762 22.4246 27.3027 20.7601 28.0028C19.0956 28.703 17.3077 29.0626 15.5019 29.0606L15.5 29.0625Z" fill="#F0F2F5"/>
</svg>
