<svg width="45" height="52" viewBox="0 0 45 52" fill="none" xmlns="http://www.w3.org/2000/svg">
<path d="M7.21774 26C7.21774 22.295 9.7902 19.2833 12.9549 19.2833H20.3577V15.1666H12.9549C7.84697 15.1666 3.70142 20.02 3.70142 26C3.70142 31.98 7.84697 36.8333 12.9549 36.8333H20.3577V32.7166H12.9549C9.7902 32.7166 7.21774 29.705 7.21774 26ZM14.8056 28.1666H29.6111V23.8333H14.8056V28.1666ZM31.4618 15.1666H24.0591V19.2833H31.4618C34.6265 19.2833 37.199 22.295 37.199 26C37.199 29.705 34.6265 32.7166 31.4618 32.7166H24.0591V36.8333H31.4618C36.5698 36.8333 40.7153 31.98 40.7153 26C40.7153 20.02 36.5698 15.1666 31.4618 15.1666Z" fill="black"/>
</svg>
