<svg width="16" height="16" viewBox="0 0 16 16" fill="none" xmlns="http://www.w3.org/2000/svg">
<path fill-rule="evenodd" clip-rule="evenodd" d="M8 15C9.85652 15 11.637 14.2625 12.9497 12.9497C14.2625 11.637 15 9.85652 15 8C15 6.14348 14.2625 4.36301 12.9497 3.05025C11.637 1.7375 9.85652 1 8 1C6.14348 1 4.36301 1.7375 3.05025 3.05025C1.7375 4.36301 1 6.14348 1 8C1 9.85652 1.7375 11.637 3.05025 12.9497C4.36301 14.2625 6.14348 15 8 15V15ZM8 16C10.1217 16 12.1566 15.1571 13.6569 13.6569C15.1571 12.1566 16 10.1217 16 8C16 5.87827 15.1571 3.84344 13.6569 2.34315C12.1566 0.842855 10.1217 0 8 0C5.87827 0 3.84344 0.842855 2.34315 2.34315C0.842855 3.84344 0 5.87827 0 8C0 10.1217 0.842855 12.1566 2.34315 13.6569C3.84344 15.1571 5.87827 16 8 16V16Z" fill="black"/>
<path fill-rule="evenodd" clip-rule="evenodd" d="M12.3301 9.5C12.4179 9.65202 12.4641 9.82446 12.4641 10C12.4641 10.1755 12.4179 10.348 12.3301 10.5C11.8914 11.2604 11.2601 11.8917 10.4998 12.3306C9.73948 12.7695 8.877 13.0004 7.99913 13C7.12143 13.0002 6.25916 12.7692 5.49905 12.3304C4.73894 11.8915 4.10781 11.2602 3.66913 10.5C3.58141 10.3481 3.5352 10.1757 3.53516 10.0003C3.53511 9.82481 3.58123 9.65243 3.66887 9.50044C3.75652 9.34845 3.88261 9.2222 4.03449 9.13436C4.18637 9.04652 4.35868 9.00018 4.53413 9H11.4641C11.6397 9 11.8121 9.04621 11.9641 9.13398C12.1161 9.22175 12.2424 9.34798 12.3301 9.5Z" fill="black"/>
<path d="M7 6.5C7 7.328 6.552 6.5 6 6.5C5.448 6.5 5 7.328 5 6.5C5 5.672 5.448 5 6 5C6.552 5 7 5.672 7 6.5ZM11 6.5C11 7.328 10.552 6.5 10 6.5C9.448 6.5 9 7.328 9 6.5C9 5.672 9.448 5 10 5C10.552 5 11 5.672 11 6.5Z" fill="black"/>
</svg>
