<svg width="37" height="35" viewBox="0 0 37 35" fill="none" xmlns="http://www.w3.org/2000/svg">
<path d="M21.0723 8.33499C21.0724 8.68586 20.9999 9.03331 20.8589 9.35751C20.7178 9.6817 20.5111 9.9763 20.2503 10.2245C19.9896 10.4727 19.6801 10.6696 19.3394 10.8039C18.9986 10.9383 18.6334 11.0075 18.2646 11.0076C17.8958 11.0078 17.5305 10.9388 17.1897 10.8046C16.8489 10.6704 16.5392 10.4737 16.2783 10.2257C16.0175 9.97768 15.8105 9.68321 15.6692 9.35909C15.528 9.03498 15.4552 8.68757 15.4551 8.33671C15.4548 7.62811 15.7505 6.94844 16.2771 6.44722C16.8036 5.946 17.5179 5.66429 18.2628 5.66406C19.0077 5.66384 19.7222 5.94511 20.2491 6.446C20.776 6.9469 21.0721 7.62639 21.0723 8.33499Z" fill="black"/>
<path d="M18.2638 20.1757C19.8144 20.1757 21.0715 18.9799 21.0715 17.5048C21.0715 16.0297 19.8144 14.8339 18.2638 14.8339C16.7131 14.8339 15.4561 16.0297 15.4561 17.5048C15.4561 18.9799 16.7131 20.1757 18.2638 20.1757Z" fill="black"/>
<path d="M18.2638 29.3471C19.8144 29.3471 21.0715 28.1513 21.0715 26.6762C21.0715 25.2011 19.8144 24.0052 18.2638 24.0052C16.7131 24.0052 15.4561 25.2011 15.4561 26.6762C15.4561 28.1513 16.7131 29.3471 18.2638 29.3471Z" fill="black"/>
</svg>
