<svg width="264" height="50" viewBox="0 0 264 50" fill="none" xmlns="http://www.w3.org/2000/svg">
<rect x="46.5" y="0.5" width="170" height="39" rx="15.5" fill="#F0F2F5" stroke="black"/>
<path d="M102.516 27.8789L102.141 28.3477C101.062 29.6055 99.4844 30.2344 97.4062 30.2344C95.5625 30.2344 94.1133 29.625 93.0586 28.4062C92.0117 27.1797 91.4766 25.4492 91.4531 23.2148V19.8633C91.4531 17.4727 91.9297 15.6836 92.8828 14.4961C93.8438 13.3008 95.2773 12.7031 97.1836 12.7031C98.8086 12.7031 100.078 13.1562 100.992 14.0625C101.914 14.9688 102.422 16.2617 102.516 17.9414H100.371C100.285 16.8789 99.9883 16.0508 99.4805 15.457C98.9805 14.8555 98.2188 14.5547 97.1953 14.5547C95.9688 14.5547 95.0703 14.957 94.5 15.7617C93.9297 16.5586 93.6328 17.8359 93.6094 19.5938V23.0742C93.6094 24.793 93.9375 26.1133 94.5938 27.0352C95.25 27.9492 96.1914 28.4062 97.418 28.4062C98.5742 28.4062 99.4531 28.125 100.055 27.5625L100.371 27.2695V23.332H97.2539V21.5039H102.516V27.8789ZM107.965 30H105.891V12H107.965V30ZM110.801 23.0742C110.801 21.2305 111.246 19.7734 112.137 18.7031C113.035 17.625 114.219 17.0859 115.688 17.0859C117.156 17.0859 118.336 17.6094 119.227 18.6562C120.125 19.7031 120.586 21.1289 120.609 22.9336V24.2695C120.609 26.1055 120.164 27.5586 119.273 28.6289C118.383 29.6992 117.195 30.2344 115.711 30.2344C114.242 30.2344 113.062 29.7148 112.172 28.6758C111.289 27.6367 110.832 26.2305 110.801 24.457V23.0742ZM112.875 24.2695C112.875 25.5742 113.129 26.6016 113.637 27.3516C114.152 28.0938 114.844 28.4648 115.711 28.4648C117.539 28.4648 118.48 27.1445 118.535 24.5039V23.0742C118.535 21.7773 118.277 20.7539 117.762 20.0039C117.246 19.2461 116.555 18.8672 115.688 18.8672C114.836 18.8672 114.152 19.2461 113.637 20.0039C113.129 20.7539 112.875 21.7734 112.875 23.0625V24.2695ZM132.469 24.2695C132.469 26.2461 132.113 27.7344 131.402 28.7344C130.691 29.7344 129.66 30.2344 128.309 30.2344C126.965 30.2344 125.957 29.6562 125.285 28.5L125.18 30H123.293V12H125.355V18.7148C126.035 17.6289 127.012 17.0859 128.285 17.0859C129.676 17.0859 130.719 17.5781 131.414 18.5625C132.109 19.5469 132.461 21.0312 132.469 23.0156V24.2695ZM130.406 23.0859C130.406 21.5859 130.195 20.5195 129.773 19.8867C129.359 19.2461 128.684 18.9258 127.746 18.9258C126.676 18.9258 125.879 19.5039 125.355 20.6602V26.6953C125.871 27.8359 126.676 28.4062 127.77 28.4062C128.707 28.4062 129.379 28.0781 129.785 27.4219C130.191 26.7656 130.398 25.7461 130.406 24.3633V23.0859ZM141.645 30C141.52 29.7266 141.43 29.2656 141.375 28.6172C140.641 29.6953 139.703 30.2344 138.562 30.2344C137.414 30.2344 136.516 29.9141 135.867 29.2734C135.227 28.625 134.906 27.7148 134.906 26.543C134.906 25.2539 135.344 24.2305 136.219 23.4727C137.094 22.7148 138.293 22.3281 139.816 22.3125H141.34V20.9648C141.34 20.207 141.172 19.668 140.836 19.3477C140.5 19.0273 139.988 18.8672 139.301 18.8672C138.676 18.8672 138.168 19.0547 137.777 19.4297C137.387 19.7969 137.191 20.2656 137.191 20.8359H135.117C135.117 20.1875 135.309 19.5703 135.691 18.9844C136.074 18.3906 136.59 17.9258 137.238 17.5898C137.887 17.2539 138.609 17.0859 139.406 17.0859C140.703 17.0859 141.688 17.4102 142.359 18.0586C143.039 18.6992 143.387 19.6367 143.402 20.8711V27.2695C143.41 28.2461 143.543 29.0938 143.801 29.8125V30H141.645ZM138.879 28.3477C139.387 28.3477 139.871 28.207 140.332 27.9258C140.793 27.6445 141.129 27.293 141.34 26.8711V23.8477H140.168C139.184 23.8633 138.406 24.0859 137.836 24.5156C137.266 24.9375 136.98 25.5312 136.98 26.2969C136.98 27.0156 137.125 27.5391 137.414 27.8672C137.703 28.1875 138.191 28.3477 138.879 28.3477ZM148.863 30H146.789V12H148.863V30ZM160.078 23.3203V30H157.934V12.9375H163.371C164.957 12.9375 166.203 13.4141 167.109 14.3672C168.016 15.3125 168.469 16.5742 168.469 18.1523C168.469 19.793 168.035 21.0586 167.168 21.9492C166.309 22.832 165.094 23.2891 163.523 23.3203H160.078ZM160.078 21.4805H163.371C164.324 21.4805 165.055 21.1953 165.562 20.625C166.07 20.0547 166.324 19.2383 166.324 18.1758C166.324 17.1523 166.062 16.332 165.539 15.7148C165.016 15.0977 164.297 14.7891 163.383 14.7891H160.078V21.4805ZM177.34 30C177.215 29.7266 177.125 29.2656 177.07 28.6172C176.336 29.6953 175.398 30.2344 174.258 30.2344C173.109 30.2344 172.211 29.9141 171.562 29.2734C170.922 28.625 170.602 27.7148 170.602 26.543C170.602 25.2539 171.039 24.2305 171.914 23.4727C172.789 22.7148 173.988 22.3281 175.512 22.3125H177.035V20.9648C177.035 20.207 176.867 19.668 176.531 19.3477C176.195 19.0273 175.684 18.8672 174.996 18.8672C174.371 18.8672 173.863 19.0547 173.473 19.4297C173.082 19.7969 172.887 20.2656 172.887 20.8359H170.812C170.812 20.1875 171.004 19.5703 171.387 18.9844C171.77 18.3906 172.285 17.9258 172.934 17.5898C173.582 17.2539 174.305 17.0859 175.102 17.0859C176.398 17.0859 177.383 17.4102 178.055 18.0586C178.734 18.6992 179.082 19.6367 179.098 20.8711V27.2695C179.105 28.2461 179.238 29.0938 179.496 29.8125V30H177.34ZM174.574 28.3477C175.082 28.3477 175.566 28.207 176.027 27.9258C176.488 27.6445 176.824 27.293 177.035 26.8711V23.8477H175.863C174.879 23.8633 174.102 24.0859 173.531 24.5156C172.961 24.9375 172.676 25.5312 172.676 26.2969C172.676 27.0156 172.82 27.5391 173.109 27.8672C173.398 28.1875 173.887 28.3477 174.574 28.3477ZM181.91 23.0859C181.91 21.1094 182.27 19.6172 182.988 18.6094C183.707 17.5938 184.758 17.0859 186.141 17.0859C187.43 17.0859 188.41 17.6367 189.082 18.7383L189.188 17.3203H191.062V30.1172C191.062 31.6875 190.66 32.8906 189.855 33.7266C189.051 34.5703 187.93 34.9922 186.492 34.9922C185.867 34.9922 185.164 34.8359 184.383 34.5234C183.609 34.2188 183.027 33.8398 182.637 33.3867L183.48 31.957C184.34 32.8008 185.289 33.2227 186.328 33.2227C188.055 33.2227 188.941 32.2812 188.988 30.3984V28.7461C188.316 29.7383 187.363 30.2344 186.129 30.2344C184.816 30.2344 183.793 29.7422 183.059 28.7578C182.324 27.7656 181.941 26.3438 181.91 24.4922V23.0859ZM183.984 24.2695C183.984 25.6914 184.191 26.7383 184.605 27.4102C185.027 28.0742 185.715 28.4062 186.668 28.4062C187.699 28.4062 188.473 27.8789 188.988 26.8242V20.4844C188.449 19.4453 187.684 18.9258 186.691 18.9258C185.738 18.9258 185.051 19.2617 184.629 19.9336C184.207 20.5977 183.992 21.6211 183.984 23.0039V24.2695ZM198.691 30.2344C197.113 30.2344 195.902 29.7656 195.059 28.8281C194.215 27.8828 193.785 26.5 193.77 24.6797V23.1445C193.77 21.2539 194.18 19.7734 195 18.7031C195.828 17.625 196.98 17.0859 198.457 17.0859C199.941 17.0859 201.051 17.5586 201.785 18.5039C202.52 19.4492 202.895 20.9219 202.91 22.9219V24.2812H195.832V24.5742C195.832 25.9336 196.086 26.9219 196.594 27.5391C197.109 28.1562 197.848 28.4648 198.809 28.4648C199.418 28.4648 199.953 28.3516 200.414 28.125C200.883 27.8906 201.32 27.5234 201.727 27.0234L202.805 28.3359C201.906 29.6016 200.535 30.2344 198.691 30.2344ZM198.457 18.8672C197.598 18.8672 196.961 19.1641 196.547 19.7578C196.133 20.3438 195.898 21.2578 195.844 22.5H200.836V22.2188C200.781 21.0156 200.562 20.1562 200.18 19.6406C199.805 19.125 199.23 18.8672 198.457 18.8672Z" fill="black"/>
<path d="M246.98 13.875L252.761 19.8125V21.475L246.98 27.4125L245.338 25.75L249.131 21.8313H236.25V19.4563H249.131L245.315 15.5375L246.98 13.875Z" fill="black"/>
<path d="M19.98 13.875L25.7613 19.8125V21.475L19.98 27.4125L18.3381 25.75L22.1306 21.8313H9.25V19.4563H22.1306L18.315 15.5375L19.98 13.875Z" fill="black"/>
<path d="M66 10C63.3478 10 60.8043 11.0536 58.9289 12.9289C57.0536 14.8043 56 17.3478 56 20C56 22.6522 57.0536 25.1957 58.9289 27.0711C60.8043 28.9464 63.3478 30 66 30C68.6522 30 71.1957 28.9464 73.0711 27.0711C74.9464 25.1957 76 22.6522 76 20C76 17.3478 74.9464 14.8043 73.0711 12.9289C71.1957 11.0536 68.6522 10 66 10V10ZM66 28.75C64.8097 28.7518 63.6316 28.5093 62.5387 28.0375L67.0925 22.915C67.1937 22.8004 67.2497 22.6529 67.25 22.5V20.625C67.25 20.4592 67.1842 20.3003 67.0669 20.1831C66.9497 20.0658 66.7908 20 66.625 20C64.4188 20 62.09 17.7062 62.0675 17.6825C62.0094 17.6245 61.9403 17.5785 61.8644 17.5472C61.7885 17.5159 61.7071 17.4999 61.625 17.5H59.125C58.9592 17.5 58.8003 17.5658 58.6831 17.6831C58.5658 17.8003 58.5 17.9592 58.5 18.125V21.875C58.5 21.991 58.5323 22.1047 58.5932 22.2033C58.6541 22.302 58.7413 22.3818 58.845 22.4337L61 23.5113V27.1812C59.8418 26.3758 58.8957 25.3019 58.2427 24.0514C57.5897 22.8008 57.2491 21.4108 57.25 20C57.2482 18.7029 57.536 17.4217 58.0925 16.25H60.375C60.5413 16.25 60.7 16.1838 60.8175 16.0675L63.3175 13.5675C63.3755 13.5094 63.4215 13.4403 63.4528 13.3644C63.4841 13.2885 63.5001 13.2071 63.5 13.125V11.6125C64.3114 11.3712 65.1535 11.2491 66 11.25C67.375 11.25 68.6763 11.5675 69.8338 12.1325C69.4148 12.4832 69.0782 12.9218 68.8477 13.4171C68.6172 13.9124 68.4985 14.4524 68.5 14.9988C68.5 16 68.89 16.9425 69.5987 17.65C69.9685 18.0204 70.4119 18.3092 70.9002 18.4976C71.3886 18.6859 71.911 18.7698 72.4338 18.7437C72.7038 19.755 73.19 22.39 72.27 26.0162C72.2615 26.0499 72.2561 26.0842 72.2538 26.1188C71.44 26.9524 70.4675 27.6146 69.3936 28.0663C68.3197 28.518 67.1663 28.7501 66.0013 28.7487L66 28.75Z" fill="black"/>
</svg>
