<svg width="409" height="23" viewBox="0 0 409 23" fill="none" xmlns="http://www.w3.org/2000/svg">
<path d="M11.4023 13.5469H4.25391L2.64844 18H0.328125L6.84375 0.9375H8.8125L15.3398 18H13.0312L11.4023 13.5469ZM4.93359 11.6953H10.7344L7.82812 3.71484L4.93359 11.6953ZM33.9609 11.8008C33.9609 13.7305 33.5195 15.2852 32.6367 16.4648C31.7539 17.6445 30.5586 18.2344 29.0508 18.2344C27.5117 18.2344 26.3008 17.7461 25.418 16.7695V22.875H23.25V5.32031H25.2305L25.3359 6.72656C26.2188 5.63281 27.4453 5.08594 29.0156 5.08594C30.5391 5.08594 31.7422 5.66016 32.625 6.80859C33.5156 7.95703 33.9609 9.55469 33.9609 11.6016V11.8008ZM31.793 11.5547C31.793 10.125 31.4883 8.99609 30.8789 8.16797C30.2695 7.33984 29.4336 6.92578 28.3711 6.92578C27.0586 6.92578 26.0742 7.50781 25.418 8.67188V14.7305C26.0664 15.8867 27.0586 16.4648 28.3945 16.4648C29.4336 16.4648 30.2578 16.0547 30.8672 15.2344C31.4844 14.4062 31.793 13.1797 31.793 11.5547ZM39.082 18H36.9141V0H39.082V18ZM50.3906 18C50.2656 17.75 50.1641 17.3047 50.0859 16.6641C49.0781 17.7109 47.875 18.2344 46.4766 18.2344C45.2266 18.2344 44.1992 17.8828 43.3945 17.1797C42.5977 16.4688 42.1992 15.5703 42.1992 14.4844C42.1992 13.1641 42.6992 12.1406 43.6992 11.4141C44.707 10.6797 46.1211 10.3125 47.9414 10.3125H50.0508V9.31641C50.0508 8.55859 49.8242 7.95703 49.3711 7.51172C48.918 7.05859 48.25 6.83203 47.3672 6.83203C46.5938 6.83203 45.9453 7.02734 45.4219 7.41797C44.8984 7.80859 44.6367 8.28125 44.6367 8.83594H42.457C42.457 8.20312 42.6797 7.59375 43.125 7.00781C43.5781 6.41406 44.1875 5.94531 44.9531 5.60156C45.7266 5.25781 46.5742 5.08594 47.4961 5.08594C48.957 5.08594 50.1016 5.45312 50.9297 6.1875C51.7578 6.91406 52.1875 7.91797 52.2188 9.19922V15.0352C52.2188 16.1992 52.3672 17.125 52.6641 17.8125V18H50.3906ZM46.793 16.3477C47.4727 16.3477 48.1172 16.1719 48.7266 15.8203C49.3359 15.4688 49.7773 15.0117 50.0508 14.4492V11.8477H48.3516C45.6953 11.8477 44.3672 12.625 44.3672 14.1797C44.3672 14.8594 44.5938 15.3906 45.0469 15.7734C45.5 16.1562 46.082 16.3477 46.793 16.3477ZM60.7031 16.4648C61.4766 16.4648 62.1523 16.2305 62.7305 15.7617C63.3086 15.293 63.6289 14.707 63.6914 14.0039H65.7422C65.7031 14.7305 65.4531 15.4219 64.9922 16.0781C64.5312 16.7344 63.9141 17.2578 63.1406 17.6484C62.375 18.0391 61.5625 18.2344 60.7031 18.2344C58.9766 18.2344 57.6016 17.6602 56.5781 16.5117C55.5625 15.3555 55.0547 13.7773 55.0547 11.7773V11.4141C55.0547 10.1797 55.2812 9.08203 55.7344 8.12109C56.1875 7.16016 56.8359 6.41406 57.6797 5.88281C58.5312 5.35156 59.5352 5.08594 60.6914 5.08594C62.1133 5.08594 63.293 5.51172 64.2305 6.36328C65.1758 7.21484 65.6797 8.32031 65.7422 9.67969H63.6914C63.6289 8.85938 63.3164 8.1875 62.7539 7.66406C62.1992 7.13281 61.5117 6.86719 60.6914 6.86719C59.5898 6.86719 58.7344 7.26562 58.125 8.0625C57.5234 8.85156 57.2227 9.99609 57.2227 11.4961V11.9062C57.2227 13.3672 57.5234 14.4922 58.125 15.2812C58.7266 16.0703 59.5859 16.4648 60.7031 16.4648ZM73.4414 18.2344C71.7227 18.2344 70.3242 17.6719 69.2461 16.5469C68.168 15.4141 67.6289 13.9023 67.6289 12.0117V11.6133C67.6289 10.3555 67.8672 9.23438 68.3438 8.25C68.8281 7.25781 69.5 6.48438 70.3594 5.92969C71.2266 5.36719 72.1641 5.08594 73.1719 5.08594C74.8203 5.08594 76.1016 5.62891 77.0156 6.71484C77.9297 7.80078 78.3867 9.35547 78.3867 11.3789V12.2812H69.7969C69.8281 13.5312 70.1914 14.543 70.8867 15.3164C71.5898 16.082 72.4805 16.4648 73.5586 16.4648C74.3242 16.4648 74.9727 16.3086 75.5039 15.9961C76.0352 15.6836 76.5 15.2695 76.8984 14.7539L78.2227 15.7852C77.1602 17.418 75.5664 18.2344 73.4414 18.2344ZM73.1719 6.86719C72.2969 6.86719 71.5625 7.1875 70.9688 7.82812C70.375 8.46094 70.0078 9.35156 69.8672 10.5H76.2188V10.3359C76.1562 9.23438 75.8594 8.38281 75.3281 7.78125C74.7969 7.17188 74.0781 6.86719 73.1719 6.86719ZM89.8008 2.25V5.32031H92.168V6.99609H89.8008V14.8594C89.8008 15.3672 89.9062 15.75 90.1172 16.0078C90.3281 16.2578 90.6875 16.3828 91.1953 16.3828C91.4453 16.3828 91.7891 16.3359 92.2266 16.2422V18C91.6562 18.1562 91.1016 18.2344 90.5625 18.2344C89.5938 18.2344 88.8633 17.9414 88.3711 17.3555C87.8789 16.7695 87.6328 15.9375 87.6328 14.8594V6.99609H85.3242V5.32031H87.6328V2.25H89.8008ZM93.9023 11.543C93.9023 10.3008 94.1445 9.18359 94.6289 8.19141C95.1211 7.19922 95.8008 6.43359 96.668 5.89453C97.543 5.35547 98.5391 5.08594 99.6562 5.08594C101.383 5.08594 102.777 5.68359 103.84 6.87891C104.91 8.07422 105.445 9.66406 105.445 11.6484V11.8008C105.445 13.0352 105.207 14.1445 104.73 15.1289C104.262 16.1055 103.586 16.8672 102.703 17.4141C101.828 17.9609 100.82 18.2344 99.6797 18.2344C97.9609 18.2344 96.5664 17.6367 95.4961 16.4414C94.4336 15.2461 93.9023 13.6641 93.9023 11.6953V11.543ZM96.082 11.8008C96.082 13.207 96.4062 14.3359 97.0547 15.1875C97.7109 16.0391 98.5859 16.4648 99.6797 16.4648C100.781 16.4648 101.656 16.0352 102.305 15.1758C102.953 14.3086 103.277 13.0977 103.277 11.543C103.277 10.1523 102.945 9.02734 102.281 8.16797C101.625 7.30078 100.75 6.86719 99.6562 6.86719C98.5859 6.86719 97.7227 7.29297 97.0664 8.14453C96.4102 8.99609 96.082 10.2148 96.082 11.8008ZM121.5 14.6367C121.5 14.0508 121.277 13.5977 120.832 13.2773C120.395 12.9492 119.625 12.668 118.523 12.4336C117.43 12.1992 116.559 11.918 115.91 11.5898C115.27 11.2617 114.793 10.8711 114.48 10.418C114.176 9.96484 114.023 9.42578 114.023 8.80078C114.023 7.76172 114.461 6.88281 115.336 6.16406C116.219 5.44531 117.344 5.08594 118.711 5.08594C120.148 5.08594 121.312 5.45703 122.203 6.19922C123.102 6.94141 123.551 7.89062 123.551 9.04688H121.371C121.371 8.45312 121.117 7.94141 120.609 7.51172C120.109 7.08203 119.477 6.86719 118.711 6.86719C117.922 6.86719 117.305 7.03906 116.859 7.38281C116.414 7.72656 116.191 8.17578 116.191 8.73047C116.191 9.25391 116.398 9.64844 116.812 9.91406C117.227 10.1797 117.973 10.4336 119.051 10.6758C120.137 10.918 121.016 11.207 121.688 11.543C122.359 11.8789 122.855 12.2852 123.176 12.7617C123.504 13.2305 123.668 13.8047 123.668 14.4844C123.668 15.6172 123.215 16.5273 122.309 17.2148C121.402 17.8945 120.227 18.2344 118.781 18.2344C117.766 18.2344 116.867 18.0547 116.086 17.6953C115.305 17.3359 114.691 16.8359 114.246 16.1953C113.809 15.5469 113.59 14.8477 113.59 14.0977H115.758C115.797 14.8242 116.086 15.4023 116.625 15.832C117.172 16.2539 117.891 16.4648 118.781 16.4648C119.602 16.4648 120.258 16.3008 120.75 15.9727C121.25 15.6367 121.5 15.1914 121.5 14.6367ZM128.66 6.85547C129.621 5.67578 130.871 5.08594 132.41 5.08594C135.09 5.08594 136.441 6.59766 136.465 9.62109V18H134.297V9.60938C134.289 8.69531 134.078 8.01953 133.664 7.58203C133.258 7.14453 132.621 6.92578 131.754 6.92578C131.051 6.92578 130.434 7.11328 129.902 7.48828C129.371 7.86328 128.957 8.35547 128.66 8.96484V18H126.492V0H128.66V6.85547ZM147.539 18C147.414 17.75 147.312 17.3047 147.234 16.6641C146.227 17.7109 145.023 18.2344 143.625 18.2344C142.375 18.2344 141.348 17.8828 140.543 17.1797C139.746 16.4688 139.348 15.5703 139.348 14.4844C139.348 13.1641 139.848 12.1406 140.848 11.4141C141.855 10.6797 143.27 10.3125 145.09 10.3125H147.199V9.31641C147.199 8.55859 146.973 7.95703 146.52 7.51172C146.066 7.05859 145.398 6.83203 144.516 6.83203C143.742 6.83203 143.094 7.02734 142.57 7.41797C142.047 7.80859 141.785 8.28125 141.785 8.83594H139.605C139.605 8.20312 139.828 7.59375 140.273 7.00781C140.727 6.41406 141.336 5.94531 142.102 5.60156C142.875 5.25781 143.723 5.08594 144.645 5.08594C146.105 5.08594 147.25 5.45312 148.078 6.1875C148.906 6.91406 149.336 7.91797 149.367 9.19922V15.0352C149.367 16.1992 149.516 17.125 149.812 17.8125V18H147.539ZM143.941 16.3477C144.621 16.3477 145.266 16.1719 145.875 15.8203C146.484 15.4688 146.926 15.0117 147.199 14.4492V11.8477H145.5C142.844 11.8477 141.516 12.625 141.516 14.1797C141.516 14.8594 141.742 15.3906 142.195 15.7734C142.648 16.1562 143.23 16.3477 143.941 16.3477ZM158.895 7.26562C158.566 7.21094 158.211 7.18359 157.828 7.18359C156.406 7.18359 155.441 7.78906 154.934 9V18H152.766V5.32031H154.875L154.91 6.78516C155.621 5.65234 156.629 5.08594 157.934 5.08594C158.355 5.08594 158.676 5.14062 158.895 5.25V7.26562ZM165.926 18.2344C164.207 18.2344 162.809 17.6719 161.73 16.5469C160.652 15.4141 160.113 13.9023 160.113 12.0117V11.6133C160.113 10.3555 160.352 9.23438 160.828 8.25C161.312 7.25781 161.984 6.48438 162.844 5.92969C163.711 5.36719 164.648 5.08594 165.656 5.08594C167.305 5.08594 168.586 5.62891 169.5 6.71484C170.414 7.80078 170.871 9.35547 170.871 11.3789V12.2812H162.281C162.312 13.5312 162.676 14.543 163.371 15.3164C164.074 16.082 164.965 16.4648 166.043 16.4648C166.809 16.4648 167.457 16.3086 167.988 15.9961C168.52 15.6836 168.984 15.2695 169.383 14.7539L170.707 15.7852C169.645 17.418 168.051 18.2344 165.926 18.2344ZM165.656 6.86719C164.781 6.86719 164.047 7.1875 163.453 7.82812C162.859 8.46094 162.492 9.35156 162.352 10.5H168.703V10.3359C168.641 9.23438 168.344 8.38281 167.812 7.78125C167.281 7.17188 166.562 6.86719 165.656 6.86719ZM190.57 15.0117L193.008 5.32031H195.176L191.484 18H189.727L186.645 8.39062L183.645 18H181.887L178.207 5.32031H180.363L182.859 14.8125L185.812 5.32031H187.559L190.57 15.0117ZM199.559 6.85547C200.52 5.67578 201.77 5.08594 203.309 5.08594C205.988 5.08594 207.34 6.59766 207.363 9.62109V18H205.195V9.60938C205.188 8.69531 204.977 8.01953 204.562 7.58203C204.156 7.14453 203.52 6.92578 202.652 6.92578C201.949 6.92578 201.332 7.11328 200.801 7.48828C200.27 7.86328 199.855 8.35547 199.559 8.96484V18H197.391V0H199.559V6.85547ZM215.871 18.2344C214.152 18.2344 212.754 17.6719 211.676 16.5469C210.598 15.4141 210.059 13.9023 210.059 12.0117V11.6133C210.059 10.3555 210.297 9.23438 210.773 8.25C211.258 7.25781 211.93 6.48438 212.789 5.92969C213.656 5.36719 214.594 5.08594 215.602 5.08594C217.25 5.08594 218.531 5.62891 219.445 6.71484C220.359 7.80078 220.816 9.35547 220.816 11.3789V12.2812H212.227C212.258 13.5312 212.621 14.543 213.316 15.3164C214.02 16.082 214.91 16.4648 215.988 16.4648C216.754 16.4648 217.402 16.3086 217.934 15.9961C218.465 15.6836 218.93 15.2695 219.328 14.7539L220.652 15.7852C219.59 17.418 217.996 18.2344 215.871 18.2344ZM215.602 6.86719C214.727 6.86719 213.992 7.1875 213.398 7.82812C212.805 8.46094 212.438 9.35156 212.297 10.5H218.648V10.3359C218.586 9.23438 218.289 8.38281 217.758 7.78125C217.227 7.17188 216.508 6.86719 215.602 6.86719ZM229.465 7.26562C229.137 7.21094 228.781 7.18359 228.398 7.18359C226.977 7.18359 226.012 7.78906 225.504 9V18H223.336V5.32031H225.445L225.48 6.78516C226.191 5.65234 227.199 5.08594 228.504 5.08594C228.926 5.08594 229.246 5.14062 229.465 5.25V7.26562ZM236.496 18.2344C234.777 18.2344 233.379 17.6719 232.301 16.5469C231.223 15.4141 230.684 13.9023 230.684 12.0117V11.6133C230.684 10.3555 230.922 9.23438 231.398 8.25C231.883 7.25781 232.555 6.48438 233.414 5.92969C234.281 5.36719 235.219 5.08594 236.227 5.08594C237.875 5.08594 239.156 5.62891 240.07 6.71484C240.984 7.80078 241.441 9.35547 241.441 11.3789V12.2812H232.852C232.883 13.5312 233.246 14.543 233.941 15.3164C234.645 16.082 235.535 16.4648 236.613 16.4648C237.379 16.4648 238.027 16.3086 238.559 15.9961C239.09 15.6836 239.555 15.2695 239.953 14.7539L241.277 15.7852C240.215 17.418 238.621 18.2344 236.496 18.2344ZM236.227 6.86719C235.352 6.86719 234.617 7.1875 234.023 7.82812C233.43 8.46094 233.062 9.35156 232.922 10.5H239.273V10.3359C239.211 9.23438 238.914 8.38281 238.383 7.78125C237.852 7.17188 237.133 6.86719 236.227 6.86719ZM251.965 5.32031L252.035 6.91406C253.004 5.69531 254.27 5.08594 255.832 5.08594C258.512 5.08594 259.863 6.59766 259.887 9.62109V18H257.719V9.60938C257.711 8.69531 257.5 8.01953 257.086 7.58203C256.68 7.14453 256.043 6.92578 255.176 6.92578C254.473 6.92578 253.855 7.11328 253.324 7.48828C252.793 7.86328 252.379 8.35547 252.082 8.96484V18H249.914V5.32031H251.965ZM270.984 18C270.859 17.75 270.758 17.3047 270.68 16.6641C269.672 17.7109 268.469 18.2344 267.07 18.2344C265.82 18.2344 264.793 17.8828 263.988 17.1797C263.191 16.4688 262.793 15.5703 262.793 14.4844C262.793 13.1641 263.293 12.1406 264.293 11.4141C265.301 10.6797 266.715 10.3125 268.535 10.3125H270.645V9.31641C270.645 8.55859 270.418 7.95703 269.965 7.51172C269.512 7.05859 268.844 6.83203 267.961 6.83203C267.188 6.83203 266.539 7.02734 266.016 7.41797C265.492 7.80859 265.23 8.28125 265.23 8.83594H263.051C263.051 8.20312 263.273 7.59375 263.719 7.00781C264.172 6.41406 264.781 5.94531 265.547 5.60156C266.32 5.25781 267.168 5.08594 268.09 5.08594C269.551 5.08594 270.695 5.45312 271.523 6.1875C272.352 6.91406 272.781 7.91797 272.812 9.19922V15.0352C272.812 16.1992 272.961 17.125 273.258 17.8125V18H270.984ZM267.387 16.3477C268.066 16.3477 268.711 16.1719 269.32 15.8203C269.93 15.4688 270.371 15.0117 270.645 14.4492V11.8477H268.945C266.289 11.8477 264.961 12.625 264.961 14.1797C264.961 14.8594 265.188 15.3906 265.641 15.7734C266.094 16.1562 266.676 16.3477 267.387 16.3477ZM278.25 5.32031L278.309 6.72656C279.238 5.63281 280.492 5.08594 282.07 5.08594C283.844 5.08594 285.051 5.76562 285.691 7.125C286.113 6.51562 286.66 6.02344 287.332 5.64844C288.012 5.27344 288.812 5.08594 289.734 5.08594C292.516 5.08594 293.93 6.55859 293.977 9.50391V18H291.809V9.63281C291.809 8.72656 291.602 8.05078 291.188 7.60547C290.773 7.15234 290.078 6.92578 289.102 6.92578C288.297 6.92578 287.629 7.16797 287.098 7.65234C286.566 8.12891 286.258 8.77344 286.172 9.58594V18H283.992V9.69141C283.992 7.84766 283.09 6.92578 281.285 6.92578C279.863 6.92578 278.891 7.53125 278.367 8.74219V18H276.199V5.32031H278.25ZM302.52 18.2344C300.801 18.2344 299.402 17.6719 298.324 16.5469C297.246 15.4141 296.707 13.9023 296.707 12.0117V11.6133C296.707 10.3555 296.945 9.23438 297.422 8.25C297.906 7.25781 298.578 6.48438 299.438 5.92969C300.305 5.36719 301.242 5.08594 302.25 5.08594C303.898 5.08594 305.18 5.62891 306.094 6.71484C307.008 7.80078 307.465 9.35547 307.465 11.3789V12.2812H298.875C298.906 13.5312 299.27 14.543 299.965 15.3164C300.668 16.082 301.559 16.4648 302.637 16.4648C303.402 16.4648 304.051 16.3086 304.582 15.9961C305.113 15.6836 305.578 15.2695 305.977 14.7539L307.301 15.7852C306.238 17.418 304.645 18.2344 302.52 18.2344ZM302.25 6.86719C301.375 6.86719 300.641 7.1875 300.047 7.82812C299.453 8.46094 299.086 9.35156 298.945 10.5H305.297V10.3359C305.234 9.23438 304.938 8.38281 304.406 7.78125C303.875 7.17188 303.156 6.86719 302.25 6.86719ZM312.34 18H310.172V0H312.34V18ZM321.082 18.2344C319.363 18.2344 317.965 17.6719 316.887 16.5469C315.809 15.4141 315.27 13.9023 315.27 12.0117V11.6133C315.27 10.3555 315.508 9.23438 315.984 8.25C316.469 7.25781 317.141 6.48438 318 5.92969C318.867 5.36719 319.805 5.08594 320.812 5.08594C322.461 5.08594 323.742 5.62891 324.656 6.71484C325.57 7.80078 326.027 9.35547 326.027 11.3789V12.2812H317.438C317.469 13.5312 317.832 14.543 318.527 15.3164C319.23 16.082 320.121 16.4648 321.199 16.4648C321.965 16.4648 322.613 16.3086 323.145 15.9961C323.676 15.6836 324.141 15.2695 324.539 14.7539L325.863 15.7852C324.801 17.418 323.207 18.2344 321.082 18.2344ZM320.812 6.86719C319.938 6.86719 319.203 7.1875 318.609 7.82812C318.016 8.46094 317.648 9.35156 317.508 10.5H323.859V10.3359C323.797 9.23438 323.5 8.38281 322.969 7.78125C322.438 7.17188 321.719 6.86719 320.812 6.86719ZM335.93 14.6367C335.93 14.0508 335.707 13.5977 335.262 13.2773C334.824 12.9492 334.055 12.668 332.953 12.4336C331.859 12.1992 330.988 11.918 330.34 11.5898C329.699 11.2617 329.223 10.8711 328.91 10.418C328.605 9.96484 328.453 9.42578 328.453 8.80078C328.453 7.76172 328.891 6.88281 329.766 6.16406C330.648 5.44531 331.773 5.08594 333.141 5.08594C334.578 5.08594 335.742 5.45703 336.633 6.19922C337.531 6.94141 337.98 7.89062 337.98 9.04688H335.801C335.801 8.45312 335.547 7.94141 335.039 7.51172C334.539 7.08203 333.906 6.86719 333.141 6.86719C332.352 6.86719 331.734 7.03906 331.289 7.38281C330.844 7.72656 330.621 8.17578 330.621 8.73047C330.621 9.25391 330.828 9.64844 331.242 9.91406C331.656 10.1797 332.402 10.4336 333.48 10.6758C334.566 10.918 335.445 11.207 336.117 11.543C336.789 11.8789 337.285 12.2852 337.605 12.7617C337.934 13.2305 338.098 13.8047 338.098 14.4844C338.098 15.6172 337.645 16.5273 336.738 17.2148C335.832 17.8945 334.656 18.2344 333.211 18.2344C332.195 18.2344 331.297 18.0547 330.516 17.6953C329.734 17.3359 329.121 16.8359 328.676 16.1953C328.238 15.5469 328.02 14.8477 328.02 14.0977H330.188C330.227 14.8242 330.516 15.4023 331.055 15.832C331.602 16.2539 332.32 16.4648 333.211 16.4648C334.031 16.4648 334.688 16.3008 335.18 15.9727C335.68 15.6367 335.93 15.1914 335.93 14.6367ZM348.305 14.6367C348.305 14.0508 348.082 13.5977 347.637 13.2773C347.199 12.9492 346.43 12.668 345.328 12.4336C344.234 12.1992 343.363 11.918 342.715 11.5898C342.074 11.2617 341.598 10.8711 341.285 10.418C340.98 9.96484 340.828 9.42578 340.828 8.80078C340.828 7.76172 341.266 6.88281 342.141 6.16406C343.023 5.44531 344.148 5.08594 345.516 5.08594C346.953 5.08594 348.117 5.45703 349.008 6.19922C349.906 6.94141 350.355 7.89062 350.355 9.04688H348.176C348.176 8.45312 347.922 7.94141 347.414 7.51172C346.914 7.08203 346.281 6.86719 345.516 6.86719C344.727 6.86719 344.109 7.03906 343.664 7.38281C343.219 7.72656 342.996 8.17578 342.996 8.73047C342.996 9.25391 343.203 9.64844 343.617 9.91406C344.031 10.1797 344.777 10.4336 345.855 10.6758C346.941 10.918 347.82 11.207 348.492 11.543C349.164 11.8789 349.66 12.2852 349.98 12.7617C350.309 13.2305 350.473 13.8047 350.473 14.4844C350.473 15.6172 350.02 16.5273 349.113 17.2148C348.207 17.8945 347.031 18.2344 345.586 18.2344C344.57 18.2344 343.672 18.0547 342.891 17.6953C342.109 17.3359 341.496 16.8359 341.051 16.1953C340.613 15.5469 340.395 14.8477 340.395 14.0977H342.562C342.602 14.8242 342.891 15.4023 343.43 15.832C343.977 16.2539 344.695 16.4648 345.586 16.4648C346.406 16.4648 347.062 16.3008 347.555 15.9727C348.055 15.6367 348.305 15.1914 348.305 14.6367ZM364.336 16.4648C365.109 16.4648 365.785 16.2305 366.363 15.7617C366.941 15.293 367.262 14.707 367.324 14.0039H369.375C369.336 14.7305 369.086 15.4219 368.625 16.0781C368.164 16.7344 367.547 17.2578 366.773 17.6484C366.008 18.0391 365.195 18.2344 364.336 18.2344C362.609 18.2344 361.234 17.6602 360.211 16.5117C359.195 15.3555 358.688 13.7773 358.688 11.7773V11.4141C358.688 10.1797 358.914 9.08203 359.367 8.12109C359.82 7.16016 360.469 6.41406 361.312 5.88281C362.164 5.35156 363.168 5.08594 364.324 5.08594C365.746 5.08594 366.926 5.51172 367.863 6.36328C368.809 7.21484 369.312 8.32031 369.375 9.67969H367.324C367.262 8.85938 366.949 8.1875 366.387 7.66406C365.832 7.13281 365.145 6.86719 364.324 6.86719C363.223 6.86719 362.367 7.26562 361.758 8.0625C361.156 8.85156 360.855 9.99609 360.855 11.4961V11.9062C360.855 13.3672 361.156 14.4922 361.758 15.2812C362.359 16.0703 363.219 16.4648 364.336 16.4648ZM379.641 18C379.516 17.75 379.414 17.3047 379.336 16.6641C378.328 17.7109 377.125 18.2344 375.727 18.2344C374.477 18.2344 373.449 17.8828 372.645 17.1797C371.848 16.4688 371.449 15.5703 371.449 14.4844C371.449 13.1641 371.949 12.1406 372.949 11.4141C373.957 10.6797 375.371 10.3125 377.191 10.3125H379.301V9.31641C379.301 8.55859 379.074 7.95703 378.621 7.51172C378.168 7.05859 377.5 6.83203 376.617 6.83203C375.844 6.83203 375.195 7.02734 374.672 7.41797C374.148 7.80859 373.887 8.28125 373.887 8.83594H371.707C371.707 8.20312 371.93 7.59375 372.375 7.00781C372.828 6.41406 373.438 5.94531 374.203 5.60156C374.977 5.25781 375.824 5.08594 376.746 5.08594C378.207 5.08594 379.352 5.45312 380.18 6.1875C381.008 6.91406 381.438 7.91797 381.469 9.19922V15.0352C381.469 16.1992 381.617 17.125 381.914 17.8125V18H379.641ZM376.043 16.3477C376.723 16.3477 377.367 16.1719 377.977 15.8203C378.586 15.4688 379.027 15.0117 379.301 14.4492V11.8477H377.602C374.945 11.8477 373.617 12.625 373.617 14.1797C373.617 14.8594 373.844 15.3906 374.297 15.7734C374.75 16.1562 375.332 16.3477 376.043 16.3477ZM390.996 7.26562C390.668 7.21094 390.312 7.18359 389.93 7.18359C388.508 7.18359 387.543 7.78906 387.035 9V18H384.867V5.32031H386.977L387.012 6.78516C387.723 5.65234 388.73 5.08594 390.035 5.08594C390.457 5.08594 390.777 5.14062 390.996 5.25V7.26562ZM398.027 18.2344C396.309 18.2344 394.91 17.6719 393.832 16.5469C392.754 15.4141 392.215 13.9023 392.215 12.0117V11.6133C392.215 10.3555 392.453 9.23438 392.93 8.25C393.414 7.25781 394.086 6.48438 394.945 5.92969C395.812 5.36719 396.75 5.08594 397.758 5.08594C399.406 5.08594 400.688 5.62891 401.602 6.71484C402.516 7.80078 402.973 9.35547 402.973 11.3789V12.2812H394.383C394.414 13.5312 394.777 14.543 395.473 15.3164C396.176 16.082 397.066 16.4648 398.145 16.4648C398.91 16.4648 399.559 16.3086 400.09 15.9961C400.621 15.6836 401.086 15.2695 401.484 14.7539L402.809 15.7852C401.746 17.418 400.152 18.2344 398.027 18.2344ZM397.758 6.86719C396.883 6.86719 396.148 7.1875 395.555 7.82812C394.961 8.46094 394.594 9.35156 394.453 10.5H400.805V10.3359C400.742 9.23438 400.445 8.38281 399.914 7.78125C399.383 7.17188 398.664 6.86719 397.758 6.86719ZM405.539 16.8633C405.539 16.4883 405.648 16.1758 405.867 15.9258C406.094 15.6758 406.43 15.5508 406.875 15.5508C407.32 15.5508 407.656 15.6758 407.883 15.9258C408.117 16.1758 408.234 16.4883 408.234 16.8633C408.234 17.2227 408.117 17.5234 407.883 17.7656C407.656 18.0078 407.32 18.1289 406.875 18.1289C406.43 18.1289 406.094 18.0078 405.867 17.7656C405.648 17.5234 405.539 17.2227 405.539 16.8633Z" fill="#7B7F78"/>
</svg>
