<svg width="241" height="24" viewBox="0 0 241 24" fill="none" xmlns="http://www.w3.org/2000/svg">
<path d="M7.0752 16.2764L7.48535 19.0889L8.08594 16.5547L12.3047 1.67188H14.6777L18.7939 16.5547L19.3799 19.1328L19.834 16.2617L23.1445 1.67188H25.9717L20.8008 23H18.2373L13.8428 7.45801L13.5059 5.83203L13.1689 7.45801L8.61328 23H6.0498L0.893555 1.67188H3.70605L7.0752 16.2764ZM34.79 23.293C32.6416 23.293 30.8936 22.5898 29.5459 21.1836C28.1982 19.7676 27.5244 17.8779 27.5244 15.5146V15.0166C27.5244 13.4443 27.8223 12.043 28.418 10.8125C29.0234 9.57227 29.8633 8.60547 30.9375 7.91211C32.0215 7.20898 33.1934 6.85742 34.4531 6.85742C36.5137 6.85742 38.1152 7.53613 39.2578 8.89355C40.4004 10.251 40.9717 12.1943 40.9717 14.7236V15.8516H30.2344C30.2734 17.4141 30.7275 18.6787 31.5967 19.6455C32.4756 20.6025 33.5889 21.0811 34.9365 21.0811C35.8936 21.0811 36.7041 20.8857 37.3682 20.4951C38.0322 20.1045 38.6133 19.5869 39.1113 18.9424L40.7666 20.2314C39.4385 22.2725 37.4463 23.293 34.79 23.293ZM34.4531 9.08398C33.3594 9.08398 32.4414 9.48438 31.6992 10.2852C30.957 11.0762 30.498 12.1895 30.3223 13.625H38.2617V13.4199C38.1836 12.043 37.8125 10.9785 37.1484 10.2266C36.4844 9.46484 35.5859 9.08398 34.4531 9.08398ZM47.0654 23H44.3555V0.5H47.0654V23ZM57.7734 21.0811C58.7402 21.0811 59.585 20.7881 60.3076 20.2021C61.0303 19.6162 61.4307 18.8838 61.5088 18.0049H64.0723C64.0234 18.9131 63.7109 19.7773 63.1348 20.5977C62.5586 21.418 61.7871 22.0723 60.8203 22.5605C59.8633 23.0488 58.8477 23.293 57.7734 23.293C55.6152 23.293 53.8965 22.5752 52.6172 21.1396C51.3477 19.6943 50.7129 17.7217 50.7129 15.2217V14.7676C50.7129 13.2246 50.9961 11.8525 51.5625 10.6514C52.1289 9.4502 52.9395 8.51758 53.9941 7.85352C55.0586 7.18945 56.3135 6.85742 57.7588 6.85742C59.5361 6.85742 61.0107 7.38965 62.1826 8.4541C63.3643 9.51855 63.9941 10.9004 64.0723 12.5996H61.5088C61.4307 11.5742 61.04 10.7344 60.3369 10.0801C59.6436 9.41602 58.7842 9.08398 57.7588 9.08398C56.3818 9.08398 55.3125 9.58203 54.5508 10.5781C53.7988 11.5645 53.4229 12.9951 53.4229 14.8701V15.3828C53.4229 17.209 53.7988 18.6152 54.5508 19.6016C55.3027 20.5879 56.377 21.0811 57.7734 21.0811ZM66.4014 14.9287C66.4014 13.376 66.7041 11.9795 67.3096 10.7393C67.9248 9.49902 68.7744 8.54199 69.8584 7.86816C70.9521 7.19434 72.1973 6.85742 73.5938 6.85742C75.752 6.85742 77.4951 7.60449 78.8232 9.09863C80.1611 10.5928 80.8301 12.5801 80.8301 15.0605V15.251C80.8301 16.7939 80.5322 18.1807 79.9365 19.4111C79.3506 20.6318 78.5059 21.584 77.4023 22.2676C76.3086 22.9512 75.0488 23.293 73.623 23.293C71.4746 23.293 69.7314 22.5459 68.3936 21.0518C67.0654 19.5576 66.4014 17.5801 66.4014 15.1191V14.9287ZM69.126 15.251C69.126 17.0088 69.5312 18.4199 70.3418 19.4844C71.1621 20.5488 72.2559 21.0811 73.623 21.0811C75 21.0811 76.0938 20.5439 76.9043 19.4697C77.7148 18.3857 78.1201 16.8721 78.1201 14.9287C78.1201 13.1904 77.7051 11.7842 76.875 10.71C76.0547 9.62598 74.9609 9.08398 73.5938 9.08398C72.2559 9.08398 71.1768 9.61621 70.3564 10.6807C69.5361 11.7451 69.126 13.2686 69.126 15.251ZM86.7773 7.15039L86.8506 8.9082C88.0127 7.54102 89.5801 6.85742 91.5527 6.85742C93.7695 6.85742 95.2783 7.70703 96.0791 9.40625C96.6064 8.64453 97.29 8.0293 98.1299 7.56055C98.9795 7.0918 99.9805 6.85742 101.133 6.85742C104.609 6.85742 106.377 8.69824 106.436 12.3799V23H103.726V12.541C103.726 11.4082 103.467 10.5635 102.949 10.0068C102.432 9.44043 101.562 9.15723 100.342 9.15723C99.3359 9.15723 98.501 9.45996 97.8369 10.0654C97.1729 10.6611 96.7871 11.4668 96.6797 12.4824V23H93.9551V12.6143C93.9551 10.3096 92.8271 9.15723 90.5713 9.15723C88.7939 9.15723 87.5781 9.91406 86.9238 11.4277V23H84.2139V7.15039H86.7773ZM117.114 23.293C114.966 23.293 113.218 22.5898 111.87 21.1836C110.522 19.7676 109.849 17.8779 109.849 15.5146V15.0166C109.849 13.4443 110.146 12.043 110.742 10.8125C111.348 9.57227 112.188 8.60547 113.262 7.91211C114.346 7.20898 115.518 6.85742 116.777 6.85742C118.838 6.85742 120.439 7.53613 121.582 8.89355C122.725 10.251 123.296 12.1943 123.296 14.7236V15.8516H112.559C112.598 17.4141 113.052 18.6787 113.921 19.6455C114.8 20.6025 115.913 21.0811 117.261 21.0811C118.218 21.0811 119.028 20.8857 119.692 20.4951C120.356 20.1045 120.938 19.5869 121.436 18.9424L123.091 20.2314C121.763 22.2725 119.771 23.293 117.114 23.293ZM116.777 9.08398C115.684 9.08398 114.766 9.48438 114.023 10.2852C113.281 11.0762 112.822 12.1895 112.646 13.625H120.586V13.4199C120.508 12.043 120.137 10.9785 119.473 10.2266C118.809 9.46484 117.91 9.08398 116.777 9.08398ZM137.563 3.3125V7.15039H140.522V9.24512H137.563V19.0742C137.563 19.709 137.695 20.1875 137.959 20.5098C138.223 20.8223 138.672 20.9785 139.307 20.9785C139.619 20.9785 140.049 20.9199 140.596 20.8027V23C139.883 23.1953 139.189 23.293 138.516 23.293C137.305 23.293 136.392 22.9268 135.776 22.1943C135.161 21.4619 134.854 20.4219 134.854 19.0742V9.24512H131.968V7.15039H134.854V3.3125H137.563ZM142.69 14.9287C142.69 13.376 142.993 11.9795 143.599 10.7393C144.214 9.49902 145.063 8.54199 146.147 7.86816C147.241 7.19434 148.486 6.85742 149.883 6.85742C152.041 6.85742 153.784 7.60449 155.112 9.09863C156.45 10.5928 157.119 12.5801 157.119 15.0605V15.251C157.119 16.7939 156.821 18.1807 156.226 19.4111C155.64 20.6318 154.795 21.584 153.691 22.2676C152.598 22.9512 151.338 23.293 149.912 23.293C147.764 23.293 146.021 22.5459 144.683 21.0518C143.354 19.5576 142.69 17.5801 142.69 15.1191V14.9287ZM145.415 15.251C145.415 17.0088 145.82 18.4199 146.631 19.4844C147.451 20.5488 148.545 21.0811 149.912 21.0811C151.289 21.0811 152.383 20.5439 153.193 19.4697C154.004 18.3857 154.409 16.8721 154.409 14.9287C154.409 13.1904 153.994 11.7842 153.164 10.71C152.344 9.62598 151.25 9.08398 149.883 9.08398C148.545 9.08398 147.466 9.61621 146.646 10.6807C145.825 11.7451 145.415 13.2686 145.415 15.251ZM172.983 16.2764L173.394 19.0889L173.994 16.5547L178.213 1.67188H180.586L184.702 16.5547L185.288 19.1328L185.742 16.2617L189.053 1.67188H191.88L186.709 23H184.146L179.751 7.45801L179.414 5.83203L179.077 7.45801L174.521 23H171.958L166.802 1.67188H169.614L172.983 16.2764ZM197.3 9.06934C198.501 7.59473 200.063 6.85742 201.987 6.85742C205.337 6.85742 207.026 8.74707 207.056 12.5264V23H204.346V12.5117C204.336 11.3691 204.072 10.5244 203.555 9.97754C203.047 9.43066 202.251 9.15723 201.167 9.15723C200.288 9.15723 199.517 9.3916 198.853 9.86035C198.188 10.3291 197.671 10.9443 197.3 11.7061V23H194.59V0.5H197.3V9.06934ZM214.058 23H211.348V7.15039H214.058V23ZM211.128 2.94629C211.128 2.50684 211.26 2.13574 211.523 1.83301C211.797 1.53027 212.197 1.37891 212.725 1.37891C213.252 1.37891 213.652 1.53027 213.926 1.83301C214.199 2.13574 214.336 2.50684 214.336 2.94629C214.336 3.38574 214.199 3.75195 213.926 4.04492C213.652 4.33789 213.252 4.48438 212.725 4.48438C212.197 4.48438 211.797 4.33789 211.523 4.04492C211.26 3.75195 211.128 3.38574 211.128 2.94629ZM222.085 3.3125V7.15039H225.044V9.24512H222.085V19.0742C222.085 19.709 222.217 20.1875 222.48 20.5098C222.744 20.8223 223.193 20.9785 223.828 20.9785C224.141 20.9785 224.57 20.9199 225.117 20.8027V23C224.404 23.1953 223.711 23.293 223.037 23.293C221.826 23.293 220.913 22.9268 220.298 22.1943C219.683 21.4619 219.375 20.4219 219.375 19.0742V9.24512H216.489V7.15039H219.375V3.3125H222.085ZM234.8 23.293C232.651 23.293 230.903 22.5898 229.556 21.1836C228.208 19.7676 227.534 17.8779 227.534 15.5146V15.0166C227.534 13.4443 227.832 12.043 228.428 10.8125C229.033 9.57227 229.873 8.60547 230.947 7.91211C232.031 7.20898 233.203 6.85742 234.463 6.85742C236.523 6.85742 238.125 7.53613 239.268 8.89355C240.41 10.251 240.981 12.1943 240.981 14.7236V15.8516H230.244C230.283 17.4141 230.737 18.6787 231.606 19.6455C232.485 20.6025 233.599 21.0811 234.946 21.0811C235.903 21.0811 236.714 20.8857 237.378 20.4951C238.042 20.1045 238.623 19.5869 239.121 18.9424L240.776 20.2314C239.448 22.2725 237.456 23.293 234.8 23.293ZM234.463 9.08398C233.369 9.08398 232.451 9.48438 231.709 10.2852C230.967 11.0762 230.508 12.1895 230.332 13.625H238.271V13.4199C238.193 12.043 237.822 10.9785 237.158 10.2266C236.494 9.46484 235.596 9.08398 234.463 9.08398Z" fill="#7B7F78"/>
</svg>
