<svg width="98" height="28" viewBox="0 0 98 28" fill="none" xmlns="http://www.w3.org/2000/svg">
<path d="M6.27539 1.08984L9.70312 15.9258L10.4414 20.0566L11.1973 16.0137L14.1152 1.08984H19.8281L22.9043 15.9258L23.6953 20.0566L24.4863 16.084L27.9492 1.08984H33.4512L26.1562 27H20.9883L17.8594 11.8477L16.9453 6.83789L16.0312 11.8477L12.9023 27H7.875L0.527344 1.08984H6.27539ZM46.8984 7.34766C48.082 7.34766 49.1543 7.55273 50.1152 7.96289C51.0879 8.37305 51.8848 9 52.5059 9.84375C53.0332 10.5586 53.3555 11.2969 53.4727 12.0586C53.5898 12.8086 53.6484 14.0391 53.6484 15.75V27H48.5332V15.3457C48.5332 14.3145 48.3574 13.4824 48.0059 12.8496C47.5488 11.959 46.6816 11.5137 45.4043 11.5137C44.0801 11.5137 43.0723 11.959 42.3809 12.8496C41.7012 13.7285 41.3613 14.9883 41.3613 16.6289V27H36.3691V1.17773H41.3613V10.3359C42.0879 9.22266 42.9258 8.44922 43.875 8.01562C44.8359 7.57031 45.8438 7.34766 46.8984 7.34766ZM63.4922 5.55469H58.4121V0.931641H63.4922V5.55469ZM58.4121 7.83984H63.4922V27H58.4121V7.83984ZM66.3926 11.584V8.01562H69.0645V2.67188H74.0215V8.01562H77.1328V11.584H74.0215V21.709C74.0215 22.4941 74.1211 22.9863 74.3203 23.1855C74.5195 23.373 75.1289 23.4668 76.1484 23.4668C76.3008 23.4668 76.459 23.4668 76.623 23.4668C76.7988 23.4551 76.9688 23.4434 77.1328 23.4316V27.1758L74.7598 27.2637C72.3926 27.3457 70.7754 26.9355 69.9082 26.0332C69.3457 25.459 69.0645 24.5742 69.0645 23.3789V11.584H66.3926ZM87.9082 11.4609C86.748 11.4609 85.8457 11.8242 85.2012 12.5508C84.5684 13.2773 84.1699 14.2617 84.0059 15.5039H91.793C91.7109 14.1797 91.3066 13.1777 90.5801 12.498C89.8652 11.8066 88.9746 11.4609 87.9082 11.4609ZM87.9082 7.33008C89.502 7.33008 90.9375 7.62891 92.2148 8.22656C93.4922 8.82422 94.5469 9.76758 95.3789 11.0566C96.1289 12.1934 96.6152 13.5117 96.8379 15.0117C96.9668 15.8906 97.0195 17.1562 96.9961 18.8086H83.8828C83.9531 20.7305 84.5566 22.0781 85.6934 22.8516C86.3848 23.332 87.2168 23.5723 88.1895 23.5723C89.2207 23.5723 90.0586 23.2793 90.7031 22.6934C91.0547 22.377 91.3652 21.9375 91.6348 21.375H96.75C96.6211 22.5117 96.0293 23.666 94.9746 24.8379C93.334 26.7012 91.0371 27.6328 88.084 27.6328C85.6465 27.6328 83.4961 26.8477 81.6328 25.2773C79.7695 23.707 78.8379 21.1523 78.8379 17.6133C78.8379 14.2969 79.6758 11.7539 81.3516 9.98438C83.0391 8.21484 85.2246 7.33008 87.9082 7.33008Z" fill="white"/>
</svg>
